<svg width="48" height="48" viewBox="0 0 48 48" fill="none" xmlns="http://www.w3.org/2000/svg">
<mask id="mask0_22_184" style="mask-type:alpha" maskUnits="userSpaceOnUse" x="0" y="0" width="48" height="48">
<rect width="48" height="48" fill="#D9D9D9"/>
</mask>
<g mask="url(#mask0_22_184)">
<path d="M22 16.55V15.7C20.5333 15.2667 19.3333 14.4417 18.4 13.225C17.4667 12.0083 17 10.6 17 9C17 7.06667 17.6833 5.41667 19.05 4.05C20.4167 2.68333 22.0667 2 24 2C25.9333 2 27.5833 2.68333 28.95 4.05C30.3167 5.41667 31 7.06667 31 9C31 10.6 30.5333 12.0083 29.6 13.225C28.6667 14.4417 27.4667 15.2667 26 15.7V16.55L40 24.6C40.6333 24.9667 41.125 25.4583 41.475 26.075C41.825 26.6917 42 27.3667 42 28.1V31.9C42 32.6333 41.825 33.3083 41.475 33.925C41.125 34.5417 40.6333 35.0333 40 35.4L26 43.45C25.3667 43.8167 24.7 44 24 44C23.3 44 22.6333 43.8167 22 43.45L8 35.4C7.36667 35.0333 6.875 34.5417 6.525 33.925C6.175 33.3083 6 32.6333 6 31.9V28.1C6 27.3667 6.175 26.6917 6.525 26.075C6.875 25.4583 7.36667 24.9667 8 24.6L22 16.55ZM22 35.45L10 28.55V31.9L24 40L38 31.9V28.55L26 35.45C25.3667 35.8167 24.7 36 24 36C23.3 36 22.6333 35.8167 22 35.45ZM22 28V21.15L13.6 26L24 32L34.4 26L26 21.15V28H22ZM24 12C24.8333 12 25.5417 11.7083 26.125 11.125C26.7083 10.5417 27 9.83333 27 9C27 8.16667 26.7083 7.45833 26.125 6.875C25.5417 6.29167 24.8333 6 24 6C23.1667 6 22.4583 6.29167 21.875 6.875C21.2917 7.45833 21 8.16667 21 9C21 9.83333 21.2917 10.5417 21.875 11.125C22.4583 11.7083 23.1667 12 24 12Z" fill="white"/>
</g>
</svg>
